# xmcd
#
# Track frame offsets: 
#        150
#        10040
#        34370
#        45987
#        73390
#        87177
#        99250
#        108747
#        120537
#        164880
#        175165
#        195360
#        208912
#        241447
#        251845
#
# Disc length: 3822 seconds
#
# Revision: 1
# Processed by: cddbd v1.5.2PL0 Copyright (c) Steve Scherf et al.
# Submitted via: ExactAudioCopyFreeDBPlugin 1.0
#
DISCID=d30eec0f
DTITLE=Ten Years After - Their First Album (EU-DE DERAM 8828972)
DYEAR=2002
DGENRE=Blues
TTITLE0=I Want To Know
TTITLE1=I Can't Keep From Crying, Sometimes
TTITLE2=Adventures of A Young Organ
TTITLE3=Spoonful
TTITLE4=Losing The Dogs
TTITLE5=Feel It For Me
TTITLE6=Love Until I Die
TTITLE7=Don't Want You Woman
TTITLE8=Help Me
TTITLE9=Portable People (A-side of DERAM DM 176, mono, released Februa
TTITLE9=ry 16th 1968)
TTITLE10=The Sounds (B-side of DERAM DM 176, mono, released February 1
TTITLE10=6th 1968)
TTITLE11=Rock Your Mama (A-side of DERAM DM 191, released May 10th 196
TTITLE11=8)
TTITLE12=Spider In My Web (B-side of DERAM DM 191, released May 10th 1
TTITLE12=968)
TTITLE13=Hold Me Tight (Recorded 5th January 1968, Previously featured
TTITLE13=on the compilation "Alvin Lee And Company")
TTITLE14=Woodchoppers Ball (Recorded 5th January 1968, Previously unre
TTITLE14=leased)
EXTD=
EXTT0=
EXTT1=
EXTT2=
EXTT3=
EXTT4=
EXTT5=
EXTT6=
EXTT7=
EXTT8=
EXTT9=
EXTT10=
EXTT11=
EXTT12=
EXTT13=
EXTT14=
PLAYORDER=
